#!OML:ASF F:\VICON\USERDATA\INSTALL\rory3\rory3.ASF
:FULLY-SPECIFIED
:DEGREES
16
root 1.09912 17.8185 -17.0209 4.97004 -0.123674 -0.172659
lowerback 5.52269 -0.889667 -1.29419
upperback 0.320022 -1.20248 2.22374
thorax -2.69243 -0.57174 3.11408
lowerneck -18.699 -4.19232 -8.88208
upperneck 14.3899 -4.39007 5.79783
head 7.84086 -2.02117 2.83791
rclavicle -2.64384e-014 1.35174e-014
rhumerus -31.2735 -8.62568 -79.696
rradius 33.2046
rwrist 4.77396
rhand -10.7903 13.3321
rfingers 7.12502
rthumb 15.2224 -16.0878
lclavicle -2.64384e-014 1.35174e-014
lhumerus -28.424 6.4899 86.6151
lradius 27.4623
lwrist -5.67575
lhand -18.8715 24.2589
lfingers 7.12502
lthumb 7.42923 54.1085
rfemur -9.01801 4.9683 21.0357
rtibia 20.1333
rfoot -9.87062 -10.7504
rtoes 1.6406
lfemur -9.82464 -3.55068 -20.1653
ltibia 20.7092
lfoot -12.119 4.5826
ltoes 0.775927
17
root 1.09797 17.8213 -17.0177 4.98287 -0.0965614 -0.244293
lowerback 5.44164 -0.882538 -1.27556
upperback 0.367036 -1.1907 2.27841
thorax -2.5985 -0.567548 3.15674
lowerneck -18.7701 -4.17968 -8.91851
upperneck 14.3431 -4.35279 5.7884
head 7.83513 -2.00496 2.84448
rclavicle -2.8128e-014 2.50469e-014
rhumerus -31.1971 -8.58537 -79.6572
rradius 33.1527
rwrist 4.78742
rhand -10.7998 13.8698
rfingers 7.12502
rthumb 15.2133 -15.5508
lclavicle -2.8128e-014 2.50469e-014
lhumerus -28.3313 6.84676 86.5604
lradius 27.6358
lwrist -6.67272
lhand -17.6975 26.2668
lfingers 7.12502
lthumb 8.56229 56.0732
rfemur -9.00293 4.98579 21.1129
rtibia 20.1442
rfoot -9.92076 -10.7771
rtoes 1.64307
lfemur -9.81648 -3.54022 -20.0773
ltibia 20.7129
lfoot -12.1746 4.57062
ltoes 0.604755
18
root 1.09774 17.8207 -17.0163 5.03424 -0.027177 -0.274866
lowerback 5.36661 -0.904814 -1.28738
upperback 0.370274 -1.21963 2.33125
thorax -2.5499 -0.582297 3.21853
lowerneck -18.9026 -4.16429 -9.02699
upperneck 14.4706 -4.30441 5.842
head 7.90027 -1.98161 2.88598
rclavicle 3.97569e-015 2.38542e-014
rhumerus -31.1171 -8.45926 -79.62
rradius 33.0487
rwrist 4.74105
rhand -10.8446 13.8956
rfingers 7.12502
rthumb 15.1702 -15.5283
lclavicle 3.97569e-015 2.38542e-014
lhumerus -28.3364 7.46291 86.3777
lradius 27.9704
lwrist -8.44576
lhand -15.7055 29.3077
lfingers 7.12502
lthumb 10.4843 59.0262
rfemur -9.0491 4.94024 21.1528
rtibia 20.1117
rfoot -9.92414 -10.825
rtoes 0.837935
lfemur -9.91285 -3.58161 -20.0281
ltibia 20.7817
lfoot -12.151 4.49292
ltoes 0.6908
19
root 1.09482 17.8166 -17.0172 5.042 0.0706252 -0.32863
lowerback 5.3345 -0.90001 -1.25848
upperback 0.395395 -1.21119 2.35205
thorax -2.50671 -0.579133 3.22201
lowerneck -18.9695 -4.18496 -9.09131
upperneck 14.5659 -4.32703 5.92011
head 7.94865 -1.98788 2.91995
rclavicle 5.96354e-016 1.98785e-015
rhumerus -31.0449 -8.50531 -79.6092
rradius 32.9676
rwrist 4.77743
rhand -10.9734 13.7693
rfingers 7.12502
rthumb 15.0461 -15.664
lclavicle 5.96354e-016 1.98785e-015
lhumerus -28.3495 7.29263 86.4846
lradius 28.1444
lwrist -7.93631
lhand -13.569 34.52
lfingers 7.12502
lthumb 12.5447 64.1234
rfemur -9.03971 4.93752 21.2372
rtibia 20.044
rfoot -9.87506 -10.9649
rtoes 0.372526
lfemur -10.0278 -3.5974 -19.9475
ltibia 20.8934
lfoot -12.0793 4.38308
ltoes 0.767713
20
root 1.09218 17.8129 -17.0187 4.99814 0.193691 -0.375283
lowerback 5.40513 -0.853894 -1.17617
upperback 0.445048 -1.1464 2.3116
thorax -2.50169 -0.548384 3.12976
lowerneck -19.1143 -4.22973 -9.07328
upperneck 14.6772 -4.39745 5.99175
head 8.01752 -2.01147 2.9316
rclavicle 9.93923e-015 -1.27222e-014
rhumerus -31.0267 -8.64692 -79.6777
rradius 33.097
rwrist 4.77414
rhand -11.1123 13.3407
rfingers 7.12502
rthumb 14.9123 -16.1025
lclavicle 9.93923e-015 -1.27222e-014
lhumerus -28.1815 6.60832 86.7652
lradius 27.9338
lwrist -5.98283
lhand -17.7646 27.6655
lfingers 7.12502
lthumb 8.49748 57.4746
rfemur -8.98482 4.91405 21.3098
rtibia 20.0165
rfoot -9.80267 -11.0736
rtoes 0.441347
lfemur -10.0649 -3.55671 -19.8824
ltibia 20.9675
lfoot -12.091 4.24177
ltoes 0.766136
21
root 1.09161 17.8116 -17.0167 5.0093 0.335987 -0.372498
lowerback 5.44259 -0.799088 -1.10372
upperback 0.453223 -1.07113 2.23068
thorax -2.52179 -0.511743 3.00022
lowerneck -19.317 -4.26632 -8.95888
upperneck 14.8233 -4.47196 6.02202
head 8.1051 -2.03464 2.91271
rclavicle -1.19271e-015 1.47101e-014
rhumerus -31.0494 -9.06206 -79.6305
rradius 32.9769
rwrist 4.98618
rhand -11.0761 13.8044
rfingers 7.12502
rthumb 14.9472 -15.6363
lclavicle -1.19271e-015 1.47101e-014
lhumerus -28.0448 6.1491 86.8632
lradius 27.7862
lwrist -5.21892
lhand -19.1491 24.9616
lfingers 7.12502
lthumb 7.16125 54.8205
rfemur -8.97517 4.90399 21.3165
rtibia 20.0071
rfoot -9.73765 -11.1804
rtoes 0.668118
lfemur -10.1006 -3.583 -19.8804
ltibia 21.0052
lfoot -12.1545 4.16642
ltoes 0.778115
